<mxfile host="app.diagrams.net" modified="2023-05-14T13:37:52.640Z" agent="Mozilla/5.0 (Windows NT 10.0; Win64; x64) AppleWebKit/537.36 (KHTML, like Gecko) Chrome/113.0.0.0 Safari/537.36" etag="_d-sBMZWImpj7gdoPVF2" version="21.1.8" type="github">
  <diagram name="第 1 页" id="hyaVMUEm3G7n4ij23Q75">
    <mxGraphModel dx="1674" dy="764" grid="1" gridSize="10" guides="1" tooltips="1" connect="1" arrows="1" fold="1" page="1" pageScale="1" pageWidth="827" pageHeight="1169" math="0" shadow="0">
      <root>
        <mxCell id="0" />
        <mxCell id="1" parent="0" />
        <mxCell id="HN0UdaaIFjvMUCXcc_qg-5" style="edgeStyle=orthogonalEdgeStyle;rounded=0;orthogonalLoop=1;jettySize=auto;html=1;" edge="1" parent="1" source="HN0UdaaIFjvMUCXcc_qg-3" target="HN0UdaaIFjvMUCXcc_qg-4">
          <mxGeometry relative="1" as="geometry" />
        </mxCell>
        <mxCell id="HN0UdaaIFjvMUCXcc_qg-3" value="&lt;font style=&quot;font-size: 18px;&quot;&gt;&lt;b&gt;C/C++&lt;br style=&quot;border-color: var(--border-color);&quot;&gt;编译型语言&lt;/b&gt;&lt;/font&gt;" style="rounded=0;whiteSpace=wrap;html=1;" vertex="1" parent="1">
          <mxGeometry x="160" y="140" width="150" height="60" as="geometry" />
        </mxCell>
        <mxCell id="HN0UdaaIFjvMUCXcc_qg-7" style="edgeStyle=orthogonalEdgeStyle;rounded=0;orthogonalLoop=1;jettySize=auto;html=1;" edge="1" parent="1" source="HN0UdaaIFjvMUCXcc_qg-4" target="HN0UdaaIFjvMUCXcc_qg-6">
          <mxGeometry relative="1" as="geometry" />
        </mxCell>
        <mxCell id="HN0UdaaIFjvMUCXcc_qg-4" value="&lt;font style=&quot;font-size: 18px;&quot;&gt;&lt;b&gt;compiler&lt;br&gt;编译器&lt;br&gt;（平台相关）&lt;br&gt;&lt;/b&gt;&lt;/font&gt;" style="rounded=0;whiteSpace=wrap;html=1;" vertex="1" parent="1">
          <mxGeometry x="149.68" y="230" width="170.63" height="80" as="geometry" />
        </mxCell>
        <mxCell id="HN0UdaaIFjvMUCXcc_qg-9" style="edgeStyle=orthogonalEdgeStyle;rounded=0;orthogonalLoop=1;jettySize=auto;html=1;entryX=0.5;entryY=0.07;entryDx=0;entryDy=0;entryPerimeter=0;" edge="1" parent="1" source="HN0UdaaIFjvMUCXcc_qg-6" target="HN0UdaaIFjvMUCXcc_qg-8">
          <mxGeometry relative="1" as="geometry" />
        </mxCell>
        <mxCell id="HN0UdaaIFjvMUCXcc_qg-6" value="&lt;font style=&quot;font-size: 18px;&quot;&gt;&lt;b&gt;可执行文件&lt;br&gt;&lt;/b&gt;&lt;b style=&quot;border-color: var(--border-color);&quot;&gt;2进制机器码&lt;br&gt;&lt;/b&gt;&lt;b&gt;（平台相关）&lt;br&gt;&lt;/b&gt;&lt;/font&gt;" style="rounded=0;whiteSpace=wrap;html=1;" vertex="1" parent="1">
          <mxGeometry x="162.5" y="350" width="145" height="70" as="geometry" />
        </mxCell>
        <mxCell id="HN0UdaaIFjvMUCXcc_qg-8" value="" style="fontColor=#0066CC;verticalAlign=top;verticalLabelPosition=bottom;labelPosition=center;align=center;html=1;outlineConnect=0;fillColor=#CCCCCC;strokeColor=#6881B3;gradientColor=none;gradientDirection=north;strokeWidth=2;shape=mxgraph.networks.pc;" vertex="1" parent="1">
          <mxGeometry x="185" y="450" width="100" height="70" as="geometry" />
        </mxCell>
        <mxCell id="HN0UdaaIFjvMUCXcc_qg-10" value="&lt;font style=&quot;font-size: 18px;&quot;&gt;&lt;b&gt;Windows&lt;/b&gt;&lt;/font&gt;" style="text;html=1;strokeColor=none;fillColor=none;align=center;verticalAlign=middle;whiteSpace=wrap;rounded=0;" vertex="1" parent="1">
          <mxGeometry x="185" y="530" width="105" height="30" as="geometry" />
        </mxCell>
        <mxCell id="HN0UdaaIFjvMUCXcc_qg-11" style="edgeStyle=orthogonalEdgeStyle;rounded=0;orthogonalLoop=1;jettySize=auto;html=1;" edge="1" parent="1" source="HN0UdaaIFjvMUCXcc_qg-12" target="HN0UdaaIFjvMUCXcc_qg-14">
          <mxGeometry relative="1" as="geometry" />
        </mxCell>
        <mxCell id="HN0UdaaIFjvMUCXcc_qg-12" value="&lt;font style=&quot;font-size: 18px;&quot;&gt;&lt;b&gt;C/C++&lt;br style=&quot;border-color: var(--border-color);&quot;&gt;编译型语言&lt;/b&gt;&lt;/font&gt;" style="rounded=0;whiteSpace=wrap;html=1;" vertex="1" parent="1">
          <mxGeometry x="390.32" y="140" width="150" height="60" as="geometry" />
        </mxCell>
        <mxCell id="HN0UdaaIFjvMUCXcc_qg-13" style="edgeStyle=orthogonalEdgeStyle;rounded=0;orthogonalLoop=1;jettySize=auto;html=1;" edge="1" parent="1" source="HN0UdaaIFjvMUCXcc_qg-14" target="HN0UdaaIFjvMUCXcc_qg-16">
          <mxGeometry relative="1" as="geometry" />
        </mxCell>
        <mxCell id="HN0UdaaIFjvMUCXcc_qg-14" value="&lt;font style=&quot;font-size: 18px;&quot;&gt;&lt;b&gt;compiler&lt;br&gt;编译器&lt;br&gt;（平台相关）&lt;br&gt;&lt;/b&gt;&lt;/font&gt;" style="rounded=0;whiteSpace=wrap;html=1;" vertex="1" parent="1">
          <mxGeometry x="380" y="230" width="170.63" height="80" as="geometry" />
        </mxCell>
        <mxCell id="HN0UdaaIFjvMUCXcc_qg-15" style="edgeStyle=orthogonalEdgeStyle;rounded=0;orthogonalLoop=1;jettySize=auto;html=1;entryX=0.5;entryY=0.07;entryDx=0;entryDy=0;entryPerimeter=0;" edge="1" parent="1" source="HN0UdaaIFjvMUCXcc_qg-16" target="HN0UdaaIFjvMUCXcc_qg-17">
          <mxGeometry relative="1" as="geometry" />
        </mxCell>
        <mxCell id="HN0UdaaIFjvMUCXcc_qg-16" value="&lt;font style=&quot;font-size: 18px;&quot;&gt;&lt;b&gt;可执行文件&lt;br&gt;&lt;/b&gt;&lt;b style=&quot;border-color: var(--border-color);&quot;&gt;2进制机器码&lt;br&gt;&lt;/b&gt;&lt;b&gt;（平台相关）&lt;br&gt;&lt;/b&gt;&lt;/font&gt;" style="rounded=0;whiteSpace=wrap;html=1;" vertex="1" parent="1">
          <mxGeometry x="392.82" y="350" width="145" height="70" as="geometry" />
        </mxCell>
        <mxCell id="HN0UdaaIFjvMUCXcc_qg-17" value="" style="fontColor=#0066CC;verticalAlign=top;verticalLabelPosition=bottom;labelPosition=center;align=center;html=1;outlineConnect=0;fillColor=#CCCCCC;strokeColor=#6881B3;gradientColor=none;gradientDirection=north;strokeWidth=2;shape=mxgraph.networks.pc;" vertex="1" parent="1">
          <mxGeometry x="415.32" y="450" width="100" height="70" as="geometry" />
        </mxCell>
        <mxCell id="HN0UdaaIFjvMUCXcc_qg-18" value="&lt;font style=&quot;font-size: 18px;&quot;&gt;&lt;b&gt;Linux&lt;/b&gt;&lt;/font&gt;" style="text;html=1;strokeColor=none;fillColor=none;align=center;verticalAlign=middle;whiteSpace=wrap;rounded=0;" vertex="1" parent="1">
          <mxGeometry x="415.32" y="530" width="105" height="30" as="geometry" />
        </mxCell>
        <mxCell id="HN0UdaaIFjvMUCXcc_qg-19" style="edgeStyle=orthogonalEdgeStyle;rounded=0;orthogonalLoop=1;jettySize=auto;html=1;" edge="1" parent="1" source="HN0UdaaIFjvMUCXcc_qg-20" target="HN0UdaaIFjvMUCXcc_qg-22">
          <mxGeometry relative="1" as="geometry" />
        </mxCell>
        <mxCell id="HN0UdaaIFjvMUCXcc_qg-20" value="&lt;font style=&quot;font-size: 18px;&quot;&gt;&lt;b&gt;C/C++&lt;br style=&quot;border-color: var(--border-color);&quot;&gt;编译型语言&lt;/b&gt;&lt;/font&gt;" style="rounded=0;whiteSpace=wrap;html=1;" vertex="1" parent="1">
          <mxGeometry x="620.3199999999999" y="140" width="150" height="60" as="geometry" />
        </mxCell>
        <mxCell id="HN0UdaaIFjvMUCXcc_qg-21" style="edgeStyle=orthogonalEdgeStyle;rounded=0;orthogonalLoop=1;jettySize=auto;html=1;" edge="1" parent="1" source="HN0UdaaIFjvMUCXcc_qg-22" target="HN0UdaaIFjvMUCXcc_qg-24">
          <mxGeometry relative="1" as="geometry" />
        </mxCell>
        <mxCell id="HN0UdaaIFjvMUCXcc_qg-22" value="&lt;font style=&quot;font-size: 18px;&quot;&gt;&lt;b&gt;compiler&lt;br&gt;编译器&lt;br&gt;（平台相关）&lt;br&gt;&lt;/b&gt;&lt;/font&gt;" style="rounded=0;whiteSpace=wrap;html=1;" vertex="1" parent="1">
          <mxGeometry x="610" y="230" width="170.63" height="80" as="geometry" />
        </mxCell>
        <mxCell id="HN0UdaaIFjvMUCXcc_qg-23" style="edgeStyle=orthogonalEdgeStyle;rounded=0;orthogonalLoop=1;jettySize=auto;html=1;entryX=0.5;entryY=0.07;entryDx=0;entryDy=0;entryPerimeter=0;" edge="1" parent="1" source="HN0UdaaIFjvMUCXcc_qg-24" target="HN0UdaaIFjvMUCXcc_qg-25">
          <mxGeometry relative="1" as="geometry" />
        </mxCell>
        <mxCell id="HN0UdaaIFjvMUCXcc_qg-24" value="&lt;font style=&quot;font-size: 18px;&quot;&gt;&lt;b&gt;可执行文件&lt;br&gt;&lt;/b&gt;&lt;b style=&quot;border-color: var(--border-color);&quot;&gt;2进制机器码&lt;br&gt;&lt;/b&gt;&lt;b&gt;（平台相关）&lt;br&gt;&lt;/b&gt;&lt;/font&gt;" style="rounded=0;whiteSpace=wrap;html=1;" vertex="1" parent="1">
          <mxGeometry x="622.8199999999999" y="350" width="145" height="70" as="geometry" />
        </mxCell>
        <mxCell id="HN0UdaaIFjvMUCXcc_qg-25" value="" style="fontColor=#0066CC;verticalAlign=top;verticalLabelPosition=bottom;labelPosition=center;align=center;html=1;outlineConnect=0;fillColor=#CCCCCC;strokeColor=#6881B3;gradientColor=none;gradientDirection=north;strokeWidth=2;shape=mxgraph.networks.pc;" vertex="1" parent="1">
          <mxGeometry x="645.3199999999999" y="450" width="100" height="70" as="geometry" />
        </mxCell>
        <mxCell id="HN0UdaaIFjvMUCXcc_qg-26" value="&lt;span style=&quot;font-size: 18px;&quot;&gt;&lt;b&gt;Mac OS&lt;/b&gt;&lt;/span&gt;" style="text;html=1;strokeColor=none;fillColor=none;align=center;verticalAlign=middle;whiteSpace=wrap;rounded=0;" vertex="1" parent="1">
          <mxGeometry x="645.3199999999999" y="530" width="105" height="30" as="geometry" />
        </mxCell>
      </root>
    </mxGraphModel>
  </diagram>
</mxfile>
